<svg xmlns="http://www.w3.org/2000/svg">
  <defs>
    <symbol id="icon-save" viewBox ="0 0 24 24">
          
          <path fill-rule="evenodd" clip-rule="evenodd" d="M5 3H17L21 7V19C21 20.1 20.1 21 19 21H5C3.89 21 3 20.1 3 19V5C3 3.9 3.89 3 5 3ZM5 19H19V7.83L16.17 5H5V19Z"/>
          <path d="M12 12C10.34 12 9 13.34 9 15C9 16.66 10.34 18 12 18C13.66 18 15 16.66 15 15C15 13.34 13.66 12 12 12Z"/>
          <path d="M6 6H15V10H6V6Z" />
          </svg>  
    </symbol>
    <symbol id="icon-dropdown" viewBox="0 0 26 38">
      <path d="M3 3L23 18.9577"  stroke-width="5" stroke-linecap="round"/>
      <path d="M3 35L23 19.0423"  stroke-width="5" stroke-linecap="round"/>
    </symbol>
  </defs>
</svg>